<svg version="1.1" xmlns="http://www.w3.org/2000/svg" xmlns:xlink="http://www.w3.org/1999/xlink" width="435.29124" height="111.04149" viewBox="0,0,435.29124,111.04149"><g transform="translate(-29.51799,-114.8261)"><g data-paper-data="{&quot;isPaintingLayer&quot;:true}" fill="#000000" fill-rule="nonzero" stroke="none" stroke-width="0.5" stroke-linecap="butt" stroke-linejoin="miter" stroke-miterlimit="10" stroke-dasharray="" stroke-dashoffset="0" style="mix-blend-mode: normal"><path d="M148.13567,192.57559c-3,2.25 -5.25,-0.75 -5.25,-0.75l-2.4336,-3.56552c-0.3329,-6.34063 -2.17638,-12.43326 -3.26003,-18.65753c-0.99604,-5.72106 -0.7015,-11.09829 -1.86234,-16.81217c-2.01463,-10.09329 -1.92674,-20.2249 -4.70346,-30.08123c-0.07626,-0.27068 -0.49198,0.2889 -0.6829,0.49539c-0.41763,0.4517 -0.87705,0.86524 -1.27447,1.33483c-0.86224,1.01883 -1.61381,2.12988 -2.50138,3.12672c-3.24344,3.64275 -5.82032,6.38939 -8.31311,10.65029c-1.67438,2.86199 -3.78517,5.44529 -5.65881,8.18097c-1.81067,2.64373 -2.42654,5.93173 -3.67688,8.88207c-2.18811,5.16315 -4.44185,9.98191 -5.9725,15.35957c-2.50598,6.57981 -2.31273,12.49645 -2.31273,19.46195c0,0.0495 0.03669,8.0752 -0.10032,8.36571c-0.97496,2.06728 -2.05199,4.92662 -4.29969,5.34138c-5.43479,1.00286 -5.42054,-4.30549 -6.99652,-6.86711c-1.09227,-1.77539 -2.68119,-3.21438 -3.75207,-5.00275c-1.2089,-2.01888 -1.22589,-4.5555 -2.10462,-6.73842c-0.46129,-1.14592 -1.48078,-2.02037 -1.89738,-3.18329c-1.03562,-2.8909 -1.11047,-6.05035 -1.95743,-9.00204c-2.54498,-8.86931 -5.28895,-17.67893 -8.17871,-26.45134c-0.44879,-3.25426 -1.69086,-6.36735 -2.93194,-9.40896c-0.14068,-0.34478 -0.28489,-0.69407 -0.40299,-1.04978c-0.39678,0.92812 -1.17424,1.77115 -1.5375,2.50871c-1.90289,3.86357 -4.36826,7.48071 -6.27526,11.29947c-1.68138,3.36696 -2.75994,7.00508 -4.28823,10.44424c-2.66241,5.99132 -5.7696,11.73975 -8.03508,17.90181c-3.08039,8.37862 -5.91088,16.69862 -11.10055,24.02754c0,0 -2.17964,3.0515 -5.23114,0.87186c-3.0515,-2.17964 -0.87186,-5.23114 -0.87186,-5.23114c3.67548,-5.09379 6.02302,-10.82377 8.30861,-16.68221c3.17005,-8.12551 6.52975,-15.95507 10.07643,-23.93389c2.29874,-5.17137 4.15598,-10.03098 7.11564,-14.83139c2.06076,-3.34244 3.17901,-7.80409 5.73917,-10.80017c1.46945,-1.71966 2.6748,-4.37789 4.91694,-4.67678c6.66345,-0.88827 9.77431,8.90682 11.14599,13.28517c0.45856,1.46371 0.44742,3.03493 0.67113,4.55239c2.91386,8.62106 5.59166,17.33231 8.08024,26.07758c0.79325,2.78761 0.7888,5.78946 1.79464,8.50761c0.41494,1.12132 1.41291,1.95914 1.85469,3.07015c0.42935,1.07978 0.40307,2.29307 0.72217,3.41041c0.39447,1.38121 1.16904,2.59019 2.03561,3.75858c-0.0003,-7.57636 0.01695,-14.1458 2.69004,-21.37408c1.59603,-5.56578 3.92653,-10.5969 6.18974,-15.93725c1.39117,-3.28266 2.21291,-6.86981 4.17191,-9.84866c0.93627,-1.4237 2.28122,-2.54378 3.25171,-3.94437c2.3567,-3.40111 3.8249,-7.5188 6.37791,-10.79981c0.71032,-0.91287 4.25775,-4.17424 5.1643,-5.19591c3.45719,-3.89625 9.6926,-12.15669 15.55228,-5.04857c1.93309,2.34495 2.0843,5.71 3.06382,8.58684c0.94805,2.78438 0.87928,5.82469 1.05462,8.76082c0.3288,5.5057 1.35368,10.96443 2.43429,16.35624c1.13687,5.76539 0.86443,11.23111 1.88973,16.95642c0.98287,5.48839 3.57529,11.9835 2.99341,17.61244l1.31847,1.43723c0,0 2.25,3 -0.75,5.25z"/><path d="M201.54132,159.56112c3.75,0 3.75,3.75 3.75,3.75v1.25069c0,4.16817 0.69494,9.28157 -0.10032,13.36846c-0.20127,1.03432 -1.02211,1.85651 -1.35335,2.85682c-0.34491,1.04158 -0.23735,2.21234 -0.66048,3.22467c-1.97606,4.72767 -5.25104,8.25566 -7.82608,12.53808c-0.78872,1.31168 -1.15344,2.88176 -2.10446,4.08099c-1.97594,2.49164 -9.37335,7.41158 -11.25499,8.16747c-0.44982,0.1807 -6.73217,0.17049 -7.96548,0.1609c-3.27891,-0.02549 -4.96836,0.19872 -8.22494,-1.81075c-2.68334,-1.65575 -4.61181,-4.71888 -6.41728,-7.2064c-1.78194,-6.77535 -1.72698,-15.59543 -0.27108,-22.45219c0.12951,-0.60993 2.31871,-6.88783 2.55803,-7.72306c1.84822,-6.45041 0.85958,-11.45493 8.22755,-15.07236c1.28771,-0.63222 2.84718,0.35598 4.26599,0.56785c2.6692,0.39858 5.23302,1.33854 7.886,1.83371c1.03904,0.19393 2.17311,-0.20325 3.1671,0.15619c1.11978,0.40493 1.86736,1.50474 2.92717,2.04758c1.30986,0.67092 2.87288,0.64173 4.30062,0.99867c0,0 3.63803,0.90951 2.72853,4.54754c-0.90951,3.63803 -4.54754,2.72853 -4.54754,2.72853c-0.75784,-0.18946 -5.30218,-1.30575 -5.70489,-1.50271c-0.80423,-0.39332 -1.24318,-1.37497 -2.07559,-1.70449c-0.57099,-0.22603 -1.2309,0.2629 -1.83565,0.15619c-1.5956,-0.28155 -3.10262,-0.9444 -4.68195,-1.30624c-1.21564,-0.27852 -2.49401,-0.26204 -3.69101,-0.61211c-0.32138,-0.09399 -0.44255,-0.84271 -0.73677,-0.68284c-2.15761,1.17239 -2.59408,8.41647 -3.02865,9.94141c-0.70201,2.46341 -1.9022,4.78183 -2.44473,7.28521c-1.10718,5.10883 -1.37432,12.43239 -0.27108,17.56985c0.83685,1.04752 2.65936,3.42353 3.58823,4.0498c1.48045,0.99817 2.69892,0.70588 4.28195,0.69063c1.93135,-0.0186 4.02394,0.93813 5.7921,0.1609c2.85574,-1.2553 5.63255,-3.09537 7.50534,-5.59011c0.76025,-1.01273 0.99715,-2.33663 1.64761,-3.42314c2.30316,-3.8471 5.42503,-6.99242 7.18218,-11.22501c0.39438,-0.94997 0.26268,-2.05373 0.59021,-3.02878c0.25832,-0.76902 0.98281,-1.3517 1.14803,-2.14594c0.72014,-3.46178 -0.10032,-8.10138 -0.10032,-11.64531v-1.25069c0,0 0,-3.75 3.75,-3.75z"/><path d="M198.98662,211.99911c3.2156,-1.92936 5.14496,1.28624 5.14496,1.28624l2.12498,3.62102c-0.02925,0.46283 -0.41872,1.06365 -0.08775,1.3885c0.38163,0.37457 1.06657,0.09221 1.60129,0.09705c1.25896,0.01138 2.51775,-0.03871 3.77673,-0.04842c2.53233,-0.01953 5.24439,0.2656 7.75996,0.01825c4.9265,-0.48441 11.46463,-3.12261 12.97879,-8.38602c1.17753,-4.09323 -0.6099,-9.7081 -1.31476,-13.62656c-0.22927,-1.27455 -0.32524,-2.6632 -1.03961,-3.74335c-1.04378,-0.90009 -8.44925,-6.82692 -8.3768,-8.65832c0.08739,-2.20889 2.65554,-3.56652 4.27989,-5.06597c3.36189,-3.1034 8.28139,-3.17257 12.11263,-5.13449c0.92768,-0.47505 1.56921,-1.40985 2.50138,-1.87603c1.19196,-0.5961 2.61135,-0.65023 3.7908,-1.2707c0.92815,-0.48827 1.82269,-1.61124 2.71592,-2.35452c-1.23203,-0.44713 -2.52048,-1.11853 -3.27541,-1.32335c-1.27345,-0.34551 -2.63912,-0.28573 -3.90127,-0.67046c-2.96261,-0.90306 -5.20831,-2.40918 -8.33059,-3.01573c0,0 -3.67718,-0.73544 -2.94174,-4.41261c0.73544,-3.67718 4.41261,-2.94174 4.41261,-2.94174c3.34314,0.6841 6.02197,2.3086 9.17905,3.23771c2.32394,0.68392 4.75507,1.03311 7.00896,1.92102c1.63986,0.64601 3.71094,0.65577 4.91923,1.93893c1.47123,1.5624 2.75098,3.80423 2.49526,5.93501c-0.24147,2.012 -2.30445,3.37205 -3.77905,4.76202c-2.43858,2.29861 -5.81549,3.33932 -8.81298,4.83776c-2.30634,1.15293 -4.48104,2.64693 -6.94539,3.4055c-1.7015,0.52375 -3.31881,1.31816 -4.87202,2.1882c-0.05389,0.03018 -0.10754,0.06214 -0.16102,0.09546c1.30084,1.12025 2.44818,2.45316 3.7352,3.59256c3.26824,5.66751 3.99939,11.48178 3.99939,18.03849c0,0.80718 0.02486,5.45515 -0.10032,5.86433c-1.43257,4.68274 -5.10324,8.65463 -9.26576,11.13327c-5.61511,3.34362 -12.51675,3.05185 -18.77235,3.01136c-4.0881,-0.02647 -7.30065,0.523 -10.88093,-2.45275c-0.988,-0.82117 -0.89229,-2.4095 -1.33843,-3.61425l-1.62708,-2.63243c0,0 -1.92936,-3.2156 1.28624,-5.14496z"/><path d="M318.28225,208.49469c2.34261,2.92826 -0.58565,5.27086 -0.58565,5.27086l-5.41076,3.32266c-1.89467,-1.18376 -3.78934,-2.36752 -5.68401,-3.55127c-1.38285,-4.65496 -1.74002,-9.81108 -1.73119,-15.04145c-0.41063,0.46234 -0.85975,0.90366 -1.1389,1.44656c-1.05633,2.05445 -1.29864,4.43652 -2.07211,6.61329c-3.47441,3.41982 -5.23405,4.25757 -10.06873,4.27989c-4.84821,0.02238 -10.0636,0.74208 -14.47838,-1.81075c-1.26974,-0.73422 -2.14615,-2.00078 -3.18154,-3.03967c-0.84043,-0.84327 -1.93745,-1.52723 -2.44382,-2.60473c-1.13284,-2.41056 -1.81219,-5.02676 -2.36685,-7.63184c-0.25486,-1.197 -0.03414,-2.44746 -0.03975,-3.67127c-0.03535,-7.71316 -0.16967,-18.9823 9.74952,-20.62569c1.22877,-0.20358 2.4432,0.4858 3.66481,0.7287c0,0 3.63803,0.90951 2.72853,4.54754c-0.90951,3.63803 -4.54754,2.72853 -4.54754,2.72853c-5.13899,-2.00492 -4.0826,10.19554 -4.09531,12.62092c-0.02381,4.54294 1.44818,10.54559 6.85619,11.30669c1.65953,0.23355 3.35153,-0.04842 5.02742,-0.04842c1.74345,0 5.44953,0.77259 6.81557,-0.72287c0.58157,-1.95825 0.78358,-4.05798 1.67996,-5.8936c0.44458,-0.91043 1.39175,-1.51108 1.83865,-2.42037c0.83539,-1.69972 0.76234,-6.46527 0.93686,-8.15883c0.40803,-3.95935 -1.07961,-8.61866 0.08754,-12.43381c0.56473,-1.84597 4.34112,-10.52644 8.4502,-8.36698c1.8375,0.96567 4.25904,8.73147 4.55933,11.98576c0.94038,10.1912 -0.22532,20.71357 -0.01087,30.96323l0.18995,-0.37872c0,0 2.92826,-2.34261 5.27086,0.58565z"/><path d="M382.69668,169.00406c1.18585,3.55756 -2.37171,4.74342 -2.37171,4.74342l-1.20137,0.32369c-8.36585,4.69979 -14.70363,14.39311 -19.3998,22.65903c-1.13049,1.98982 -2.40308,3.91217 -3.32441,6.00706c-1.20796,2.74661 -0.40964,7.64218 -3.04968,9.75577c-0.26564,0.21267 -0.54421,0.40345 -0.83314,0.57666l0.1067,0.14226l-2.47107,1.85331c-0.63185,0.48467 -1.42244,0.77273 -2.2803,0.77273c-2.07107,0 -3.75,-1.67893 -3.75,-3.75v-3.12672l0.12908,0l-0.11083,-0.36952c1.23474,-6.17372 0.60709,-12.73472 0.60709,-19.01616c0,-8.41658 0.50024,-16.64373 -1.17787,-24.90368c0,0 -0.73544,-3.67718 2.94174,-4.41261c3.67718,-0.73544 4.41261,2.94174 4.41261,2.94174c1.73263,8.78668 1.32351,17.43452 1.32351,26.37455c0,1.66792 0.04177,3.35597 0.08248,5.05202c0.26859,-0.5061 0.56015,-1.04096 0.87856,-1.61198c5.32769,-9.55436 12.68388,-19.94594 22.19428,-25.45628l2.5507,-0.92699c0,0 3.55756,-1.18585 4.74342,2.37171z"/><path d="M464.80923,173.94198c0,3.75 -3.75,3.75 -3.75,3.75h-0.62534c-1.17195,-0.03344 -2.37663,-0.37742 -3.51584,-0.10032c-1.27431,0.30997 -2.2402,1.42615 -3.49551,1.80578c-1.45261,0.43929 -4.57163,0.70964 -7.0601,0.98042c-0.13772,5.00289 -0.31354,9.97098 -0.31354,14.81757c0,6.19065 -0.41627,12.15284 0.78118,18.14276c0.46951,0.93801 0.46951,1.87652 0.46951,1.87652l-7.38803,1.53485c-1.79025,-7.161 -1.36265,-14.1826 -1.36265,-21.55414c0,-4.36281 0.00047,-8.72562 0.00053,-13.08842c-2.55164,0.76907 -5.10553,1.55106 -7.76256,1.82017c-3.49115,0.3536 -7.52755,0.01825 -11.00037,0.01825c0,0 -3.75,0 -3.75,-3.75c0,-3.75 3.75,-3.75 3.75,-3.75c3.22245,0 7.0048,0.33845 10.26134,0.01825c2.90207,-0.28535 5.69622,-1.27739 8.50108,-2.12508c-0.00028,-1.66972 -0.0007,-3.33944 -0.00131,-5.00916c-0.00175,-4.84344 0.59019,-9.72623 -0.02605,-14.53031c-0.31073,-2.4224 -1.19544,-4.73595 -1.79316,-7.10393c-0.52822,-5.20866 -1.11586,-9.66425 -2.4293,-14.68129c-0.35553,-1.35804 -0.84453,-2.69998 -1.01939,-4.09004c-0.45022,0.14765 -0.92214,0.27371 -1.29505,0.53411c-3.35232,2.3409 -7.36299,6.933 -9.96219,10.0126c-5.94552,7.0444 -10.55712,14.75981 -15.27934,22.64319c0,0 -1.92936,3.2156 -5.14496,1.28624c-3.2156,-1.92936 -1.28624,-5.14496 -1.28624,-5.14496c1.84185,-3.06427 3.78285,-5.86012 5.68494,-8.84654c1.63416,-2.56574 2.74683,-5.4764 4.63614,-7.86051c3.74528,-4.72616 7.84547,-9.12196 12.12993,-13.40642c2.44985,-2.44985 4.32308,-4.36073 7.33777,-6.01861c1.49733,-0.82343 2.82043,-3.11588 4.43821,-2.56562c2.57404,0.87551 4.14839,3.64383 5.56129,5.96674c0.99335,1.63313 0.94395,3.7048 1.44364,5.54984c1.40597,5.19133 2.04452,9.96522 2.57346,15.33524c2.10077,8.4813 2.48175,17.49626 2.39555,26.53731c1.58709,-0.10289 3.16593,-0.23534 4.67341,-0.70788c1.41737,-0.44429 2.55834,-1.62533 4.00862,-1.94629c1.70538,-0.37742 3.49266,-0.06688 5.23898,-0.10032h0.62534c0,0 3.75,0 3.75,3.75z"/></g></g></svg>